<svg width="120" height="168" viewBox="0 0 120 168" fill="none" xmlns="http://www.w3.org/2000/svg">
<path d="M114.363 120.9L113.404 120.615L113.402 120.622L114.363 120.9ZM101.875 146.663L101.087 146.047L101.086 146.049L101.875 146.663ZM83.2 161.738L82.7833 160.828L82.7797 160.83L83.2 161.738ZM37.075 161.738L36.6547 162.645L37.075 161.738ZM18.4 146.663L17.6073 147.272L17.6149 147.282L18.4 146.663ZM6.025 120.9L5.06453 121.178L6.025 120.9ZM6.025 47.55L5.06453 47.2716L6.025 47.55ZM18.4 21.9L17.6116 21.2849L17.6106 21.286L18.4 21.9ZM83.2 6.71249L82.7797 7.6199L82.7833 7.62156L83.2 6.71249ZM101.875 21.9L101.082 22.5098L101.09 22.5194L101.875 21.9ZM114.363 47.55L113.402 47.8284L113.404 47.8348L114.363 47.55ZM93.775 53.625L94.7462 53.3866L93.775 53.625ZM85.675 33.7125L86.5051 33.1549L85.675 33.7125ZM73.975 23.025L73.5338 23.9225L73.5463 23.9284L73.975 23.025ZM46.3 23.025L46.7288 23.9285L46.7411 23.9224L46.3 23.025ZM34.6 33.7125L35.4301 34.2701L34.6 33.7125ZM26.5 53.625L25.5288 53.3866L25.5268 53.395L26.5 53.625ZM26.5 114.938L25.5268 115.168L25.5288 115.176L26.5 114.938ZM34.6 134.85L33.7698 135.408L33.7738 135.413L34.6 134.85ZM46.3 145.538L45.8588 146.435L45.8713 146.441L46.3 145.538ZM73.975 145.538L74.4038 146.441L74.4161 146.435L73.975 145.538ZM85.675 134.85L86.5013 135.413L86.5051 135.408L85.675 134.85ZM93.775 114.938L92.8038 114.699L93.775 114.938ZM117.975 84.225C117.975 98.2563 116.445 110.381 113.404 120.615L115.321 121.185C118.43 110.719 119.975 98.3937 119.975 84.225H117.975ZM113.402 120.622C110.429 130.878 106.317 139.344 101.087 146.047L102.663 147.278C108.083 140.331 112.296 131.622 115.323 121.178L113.402 120.622ZM101.086 146.049C95.9263 152.682 89.8257 157.601 82.7833 160.828L83.6167 162.647C90.9743 159.274 97.3237 154.143 102.664 147.276L101.086 146.049ZM82.7797 160.83C75.7931 164.066 68.2499 165.688 60.1375 165.688V167.688C68.5251 167.688 76.3569 166.009 83.6203 162.645L82.7797 160.83ZM60.1375 165.688C52.0251 165.688 44.4819 164.066 37.4953 160.83L36.6547 162.645C43.9181 166.009 51.7499 167.688 60.1375 167.688V165.688ZM37.4953 160.83C30.526 157.602 24.4222 152.682 19.1851 146.043L17.6149 147.282C23.0278 154.143 29.374 159.273 36.6547 162.645L37.4953 160.83ZM19.1926 146.053C14.0353 139.348 9.95912 130.881 6.98547 120.622L5.06453 121.178C8.09089 131.619 12.2647 140.327 17.6074 147.272L19.1926 146.053ZM6.98547 120.622C4.01833 110.385 2.525 98.2581 2.525 84.225H0.525C0.525 98.3919 2.03167 110.715 5.06453 121.178L6.98547 120.622ZM2.525 84.225C2.525 70.1919 4.01833 58.065 6.98547 47.8284L5.06453 47.2716C2.03167 57.735 0.525 70.0581 0.525 84.225H2.525ZM6.98547 47.8284C9.95902 37.5696 14.0345 29.1416 19.1894 22.5139L17.6106 21.286C12.2655 28.1583 8.09098 36.8304 5.06453 47.2716L6.98547 47.8284ZM19.1884 22.5151C24.4259 15.8024 30.5288 10.8465 37.4953 7.61989L36.6547 5.80509C29.3712 9.1785 23.0242 14.3476 17.6116 21.2849L19.1884 22.5151ZM37.4953 7.61989C44.4819 4.38398 52.0251 2.76249 60.1375 2.76249V0.762489C51.7499 0.762489 43.9181 2.441 36.6547 5.80509L37.4953 7.61989ZM60.1375 2.76249C68.2499 2.76249 75.7931 4.38398 82.7797 7.61989L83.6203 5.80509C76.3569 2.441 68.5251 0.762489 60.1375 0.762489V2.76249ZM82.7833 7.62156C89.8229 10.848 95.9227 15.8021 101.082 22.5097L102.668 21.2903C97.3273 14.3479 90.9771 9.17696 83.6167 5.80343L82.7833 7.62156ZM101.09 22.5194C106.318 29.146 110.429 37.572 113.402 47.8284L115.323 47.2716C112.296 36.828 108.082 28.154 102.66 21.2806L101.09 22.5194ZM113.404 47.8348C116.445 58.0691 117.975 70.1937 117.975 84.225H119.975C119.975 70.0563 118.43 57.7309 115.321 47.2652L113.404 47.8348ZM97.8125 84.225C97.8125 72.026 96.7966 61.7401 94.7462 53.3866L92.8038 53.8634C94.8034 62.0099 95.8125 72.124 95.8125 84.225H97.8125ZM94.7462 53.3866C92.7036 45.0652 89.9661 38.3079 86.5051 33.1549L84.8449 34.2701C88.1339 39.1671 90.7964 45.6848 92.8038 53.8634L94.7462 53.3866ZM86.5051 33.1549C83.0534 28.0157 79.0255 24.3149 74.4037 22.1216L73.5463 23.9284C77.7745 25.935 81.5466 29.3593 84.8449 34.2701L86.5051 33.1549ZM74.4161 22.1275C69.8577 19.887 65.0947 18.7625 60.1375 18.7625V20.7625C64.7803 20.7625 69.2423 21.813 73.5339 23.9224L74.4161 22.1275ZM60.1375 18.7625C55.1803 18.7625 50.4173 19.887 45.8589 22.1275L46.7411 23.9224C51.0327 21.813 55.4947 20.7625 60.1375 20.7625V18.7625ZM45.8713 22.1216C41.2495 24.3149 37.2216 28.0157 33.7699 33.1549L35.4301 34.2701C38.7284 29.3593 42.5005 25.935 46.7287 23.9284L45.8713 22.1216ZM33.7699 33.1549C30.3089 38.3079 27.5714 45.0652 25.5288 53.3866L27.4712 53.8634C29.4786 45.6848 32.1411 39.1671 35.4301 34.2701L33.7699 33.1549ZM25.5268 53.395C23.5532 61.745 22.575 72.0279 22.575 84.225H24.575C24.575 72.1221 25.5468 62.0049 27.4732 53.855L25.5268 53.395ZM22.575 84.225C22.575 96.4966 23.5531 106.817 25.5268 115.168L27.4732 114.707C25.5469 106.558 24.575 96.4034 24.575 84.225H22.575ZM25.5288 115.176C27.5714 123.497 30.3089 130.255 33.7699 135.408L35.4301 134.292C32.1411 129.395 29.4786 122.878 27.4712 114.699L25.5288 115.176ZM33.7738 135.413C37.2253 140.476 41.2487 144.169 45.8589 146.435L46.7411 144.64C42.5013 142.556 38.7247 139.124 35.4262 134.287L33.7738 135.413ZM45.8713 146.441C50.4274 148.603 55.1861 149.688 60.1375 149.688V147.688C55.4889 147.688 51.0226 146.672 46.7287 144.634L45.8713 146.441ZM60.1375 149.688C65.0889 149.688 69.8476 148.603 74.4037 146.441L73.5463 144.634C69.2524 146.672 64.7861 147.688 60.1375 147.688V149.688ZM74.4161 146.435C79.0263 144.169 83.0497 140.476 86.5012 135.413L84.8488 134.287C81.5503 139.124 77.7737 142.556 73.5339 144.64L74.4161 146.435ZM86.5051 135.408C89.9661 130.255 92.7036 123.497 94.7462 115.176L92.8038 114.699C90.7964 122.878 88.1339 129.395 84.8449 134.292L86.5051 135.408ZM94.7462 115.176C96.7967 106.822 97.8125 96.4985 97.8125 84.225H95.8125C95.8125 96.4015 94.8033 106.553 92.8038 114.699L94.7462 115.176Z" fill="#77C6C7" fill-opacity="0.45"/>
</svg>
