<svg width="112" height="168" viewBox="0 0 112 168" fill="none" xmlns="http://www.w3.org/2000/svg">
<path d="M78.5125 4.8L78.1816 5.74373L78.1926 5.74744L78.5125 4.8ZM93.3625 13.2375L92.6973 13.9841L92.7044 13.9905L92.7117 13.9967L93.3625 13.2375ZM103.15 26.2875L102.24 26.7023L102.242 26.7074L103.15 26.2875ZM104.725 56.8875L105.677 57.1929L105.679 57.1878L104.725 56.8875ZM99.2125 67.35L99.9934 67.9747L99.2125 67.35ZM90.4375 75L90.952 75.8575L90.9575 75.8542L90.4375 75ZM78.9625 80.0625L78.6614 79.1089L75.423 80.1316L78.6988 81.0271L78.9625 80.0625ZM102.363 94.0125L101.583 94.6383L101.587 94.6438L102.363 94.0125ZM105.963 138.788L106.864 139.221L106.866 139.217L105.963 138.788ZM94.375 153.975L95.021 154.738L95.0277 154.733L94.375 153.975ZM77.1625 163.538L77.4787 164.486L77.4852 164.484L77.1625 163.538ZM34.4125 163.65L34.0858 164.595L34.4125 163.65ZM18.8875 154.988L18.228 155.739L18.2356 155.746L18.8875 154.988ZM8.3125 141.6L7.43121 142.073L8.3125 141.6ZM1.3375 124.613L0.944936 123.693L0.119119 124.045L0.380968 124.904L1.3375 124.613ZM10.5625 120.675L10.9551 121.595L10.9633 121.591L10.5625 120.675ZM17.5375 119.775L17.3414 120.756L17.5375 119.775ZM22.4875 123.712L23.3881 123.278L22.4875 123.712ZM26.3125 131.25L25.4276 131.716L26.3125 131.25ZM32.275 139.462L31.5474 140.149L31.5524 140.154L31.5574 140.159L32.275 139.462ZM41.6125 145.988L41.1798 146.889L41.1905 146.894L41.2014 146.899L41.6125 145.988ZM70.4125 145.875L70.8124 146.792L70.4125 145.875ZM80.65 138.9L79.9335 138.202L79.924 138.212L80.65 138.9ZM86.8375 129.45L87.7688 129.814L87.7714 129.808L86.8375 129.45ZM87.175 107.288L86.2166 107.573L86.2194 107.582L86.2223 107.592L87.175 107.288ZM81.1 98.175L80.4428 98.9288L80.4524 98.9369L81.1 98.175ZM68.725 92.2125L68.4631 93.1776L68.4665 93.1785L68.725 92.2125ZM48.25 90.075H47.25V91.075H48.25V90.075ZM48.25 74.55L48.2391 73.5501L47.25 73.5608V74.55H48.25ZM65.6875 72.4125L65.9622 73.3741L65.9721 73.3711L65.6875 72.4125ZM77.3875 66.675L78.0122 67.4559L78.0181 67.4512L78.0239 67.4464L77.3875 66.675ZM83.8 57.9L82.8715 57.5286L82.8679 57.5376L82.8645 57.5466L83.8 57.9ZM83.6875 35.0625L82.759 35.4339L82.7641 35.4465L82.7694 35.4589L83.6875 35.0625ZM77.95 26.7375L77.2773 27.4774L77.2836 27.4831L77.2899 27.4887L77.95 26.7375ZM69.175 21.675L69.4912 20.7263L69.175 21.675ZM47.125 21.7875L47.4477 22.7341L47.46 22.7297L47.125 21.7875ZM38.2375 26.625L38.8594 27.4081L38.8622 27.4059L38.2375 26.625ZM31.7125 33.9375L30.867 33.4035L30.8632 33.4096L31.7125 33.9375ZM28 43.1625L28.9353 43.5164L28.9606 43.4494L28.9762 43.3794L28 43.1625ZM24.0625 48.7875L24.577 49.6451L24.5889 49.6378L24.0625 48.7875ZM17.425 49.4625L17.2478 50.4467L17.2604 50.4489L17.2729 50.4509L17.425 49.4625ZM6.175 47.4375L5.18485 47.2975L5.05 48.2511L5.99785 48.4217L6.175 47.4375ZM23.95 13.4625L24.5853 14.2348L24.5926 14.2287L23.95 13.4625ZM59.3875 2.76249C66.2654 2.76249 72.5267 3.76076 78.1816 5.74366L78.8434 3.85633C72.9483 1.78922 66.4597 0.762489 59.3875 0.762489V2.76249ZM78.1926 5.74744C83.8534 7.65887 88.6826 10.4075 92.6973 13.9841L94.0277 12.4908C89.7924 8.71752 84.7216 5.84111 78.8324 3.85255L78.1926 5.74744ZM92.7117 13.9967C96.7998 17.5008 99.9746 21.7328 102.24 26.7023L104.06 25.8727C101.675 20.6422 98.3252 16.1741 94.0133 12.4782L92.7117 13.9967ZM102.242 26.7074C104.5 31.5869 105.638 37.0288 105.638 43.05H107.638C107.638 36.7712 106.45 31.0381 104.058 25.8676L102.242 26.7074ZM105.638 43.05C105.638 48.1446 105.01 52.6529 103.771 56.5872L105.679 57.1878C106.99 53.0221 107.638 48.3054 107.638 43.05H105.638ZM103.773 56.5821C102.532 60.4512 100.749 63.8283 98.4316 66.7253L99.9934 67.9747C102.476 64.8717 104.368 61.2738 105.677 57.1929L103.773 56.5821ZM98.4316 66.7253C96.1082 69.6296 93.273 72.1033 89.9176 74.1458L90.9575 75.8542C94.502 73.6967 97.5168 71.0704 99.9934 67.9747L98.4316 66.7253ZM89.923 74.1425C86.6237 76.1221 82.8719 77.7793 78.6614 79.1089L79.2636 81.0161C83.6031 79.6457 87.5014 77.9279 90.952 75.8575L89.923 74.1425ZM78.6988 81.0271C88.9825 83.8385 96.5749 88.3969 101.583 94.6383L103.142 93.3867C97.8001 86.7281 89.7925 81.9865 79.2262 79.0979L78.6988 81.0271ZM101.587 94.6438C106.666 100.884 109.238 108.786 109.238 118.425H111.238C111.238 108.414 108.559 100.041 103.138 93.3812L101.587 94.6438ZM109.238 118.425C109.238 125.872 107.837 132.51 105.059 138.358L106.866 139.217C109.788 133.065 111.238 126.128 111.238 118.425H109.238ZM105.061 138.354C102.27 144.158 98.4908 149.109 93.7223 153.217L95.0277 154.733C100.009 150.441 103.955 145.267 106.864 139.221L105.061 138.354ZM93.7291 153.212C88.9578 157.249 83.3325 160.378 76.8398 162.591L77.4852 164.484C84.1925 162.197 90.0422 158.951 95.0209 154.738L93.7291 153.212ZM76.8463 162.589C70.431 164.727 63.5636 165.8 56.2375 165.8V167.8C63.7614 167.8 70.844 166.698 77.4787 164.486L76.8463 162.589ZM56.2375 165.8C47.8404 165.8 40.6817 164.759 34.7392 162.705L34.0858 164.595C40.2933 166.741 47.6846 167.8 56.2375 167.8V165.8ZM34.7392 162.705C28.7668 160.64 23.7063 157.811 19.5394 154.229L18.2356 155.746C22.6187 159.514 27.9082 162.46 34.0858 164.595L34.7392 162.705ZM19.5469 154.236C15.365 150.567 11.914 146.2 9.19379 141.127L7.43121 142.073C10.261 147.35 13.86 151.908 18.2281 155.739L19.5469 154.236ZM9.19379 141.127C6.4525 136.015 4.15172 130.414 2.29403 124.321L0.380968 124.904C2.27328 131.111 4.62251 136.835 7.43121 142.073L9.19379 141.127ZM1.73007 125.532L10.9551 121.595L10.1699 119.755L0.944936 123.693L1.73007 125.532ZM10.9633 121.591C13.2032 120.611 15.3199 120.351 17.3414 120.756L17.7336 118.794C15.2552 118.299 12.7218 118.639 10.1617 119.759L10.9633 121.591ZM17.3414 120.756C19.2656 121.14 20.6649 122.237 21.587 124.147L23.3881 123.278C22.2101 120.838 20.3094 119.31 17.7336 118.794L17.3414 120.756ZM21.587 124.147C22.6433 126.335 23.9238 128.859 25.4276 131.716L27.1974 130.784C25.7012 127.941 24.4317 125.44 23.3881 123.278L21.587 124.147ZM25.4276 131.716C26.9745 134.655 29.0176 137.465 31.5474 140.149L33.0026 138.776C30.5824 136.21 28.6505 133.545 27.1974 130.784L25.4276 131.716ZM31.5574 140.159C34.1272 142.807 37.3412 145.047 41.1798 146.889L42.0452 145.086C38.3838 143.328 35.3728 141.218 32.9926 138.766L31.5574 140.159ZM41.2014 146.899C45.1946 148.7 50.1458 149.575 56.0125 149.575V147.575C50.3292 147.575 45.6804 146.725 42.0236 145.076L41.2014 146.899ZM56.0125 149.575C61.596 149.575 66.5371 148.657 70.8124 146.792L70.0126 144.958C66.0379 146.693 61.379 147.575 56.0125 147.575V149.575ZM70.8124 146.792C75.0425 144.946 78.5712 142.548 81.376 139.588L79.924 138.212C77.3288 140.952 74.0325 143.204 70.0126 144.958L70.8124 146.792ZM81.3665 139.598C84.2276 136.659 86.3666 133.398 87.7687 129.814L85.9063 129.086C84.6084 132.402 82.6224 135.441 79.9335 138.202L81.3665 139.598ZM87.7714 129.808C89.161 126.179 89.8625 122.571 89.8625 118.988H87.8625C87.8625 122.304 87.214 125.671 85.9036 129.092L87.7714 129.808ZM89.8625 118.988C89.8625 114.625 89.2885 110.621 88.1277 106.983L86.2223 107.592C87.3115 111.004 87.8625 114.8 87.8625 118.988H89.8625ZM88.1334 107.002C87.0242 103.278 84.8843 100.079 81.7477 97.4131L80.4524 98.9369C83.3157 101.371 85.2258 104.247 86.2166 107.573L88.1334 107.002ZM81.7571 97.4212C78.6793 94.738 74.398 92.6954 68.9835 91.2465L68.4665 93.1785C73.702 94.5796 77.6707 96.512 80.4429 98.9288L81.7571 97.4212ZM68.987 91.2474C63.6185 89.7903 56.696 89.075 48.25 89.075V91.075C56.604 91.075 63.3315 91.7847 68.4631 93.1776L68.987 91.2474ZM49.25 90.075V74.55H47.25V90.075H49.25ZM48.2609 75.5499C55.2172 75.4743 61.1246 74.7562 65.9622 73.374L65.4128 71.451C60.8004 72.7688 55.0828 73.4757 48.2391 73.5501L48.2609 75.5499ZM65.9721 73.3711C70.8602 71.92 74.8859 69.9569 78.0122 67.4559L76.7628 65.8941C73.8891 68.1931 70.1149 70.055 65.4029 71.4539L65.9721 73.3711ZM78.0239 67.4464C81.1475 64.8694 83.3941 61.804 84.7355 58.2534L82.8645 57.5466C81.6559 60.746 79.6275 63.5306 76.7511 65.9036L78.0239 67.4464ZM84.7285 58.2714C86.1308 54.7655 86.825 50.9252 86.825 46.7625H84.825C84.825 50.6998 84.1692 54.2845 82.8715 57.5286L84.7285 58.2714ZM86.825 46.7625C86.825 42.1594 86.0964 38.1185 84.6056 34.6661L82.7694 35.4589C84.1286 38.6065 84.825 42.3656 84.825 46.7625H86.825ZM84.616 34.6911C83.2137 31.1855 81.215 28.2754 78.6101 25.9863L77.2899 27.4887C79.6351 29.5496 81.4613 32.1895 82.759 35.4339L84.616 34.6911ZM78.6227 25.9976C76.0382 23.648 72.9897 21.8925 69.4912 20.7263L68.8588 22.6237C72.1103 23.7075 74.9118 25.3269 77.2773 27.4774L78.6227 25.9976ZM69.4912 20.7263C66.0031 19.5636 62.22 18.9875 58.15 18.9875V20.9875C62.03 20.9875 65.5969 21.5364 68.8588 22.6237L69.4912 20.7263ZM58.15 18.9875C54.0733 18.9875 50.2837 19.6031 46.79 20.8453L47.46 22.7297C50.7163 21.5719 54.2767 20.9875 58.15 20.9875V18.9875ZM46.8023 20.841C43.3969 22.0019 40.3315 23.6692 37.6128 25.8441L38.8622 27.4059C41.3935 25.3808 44.2531 23.8231 47.4477 22.734L46.8023 20.841ZM37.6156 25.8419C34.9745 27.9392 32.7249 30.4619 30.867 33.4035L32.558 34.4715C34.3001 31.7131 36.4005 29.3608 38.8594 27.4081L37.6156 25.8419ZM30.8632 33.4096C29.0753 36.2858 27.7968 39.4669 27.0238 42.9456L28.9762 43.3794C29.7032 40.1081 30.8997 37.1392 32.5618 34.4654L30.8632 33.4096ZM27.0647 42.8086C26.0491 45.4927 24.841 47.1295 23.5361 47.9372L24.5889 49.6378C26.434 48.4955 27.8509 46.3823 28.9353 43.5164L27.0647 42.8086ZM23.548 47.93C22.346 48.6512 20.4175 48.9111 17.5771 48.4741L17.2729 50.4509C20.2825 50.9139 22.779 50.7238 24.577 49.645L23.548 47.93ZM17.6022 48.4783L6.35215 46.4533L5.99785 48.4217L17.2478 50.4467L17.6022 48.4783ZM7.16515 47.5775C8.20115 40.2515 10.2319 33.8055 13.2426 28.2248L11.4824 27.2752C8.34308 33.0944 6.24885 39.7735 5.18485 47.2975L7.16515 47.5775ZM13.2426 28.2248C16.2607 22.6302 20.0428 17.9714 24.5853 14.2348L23.3147 12.6902C18.5572 16.6036 14.6143 21.4698 11.4824 27.2752L13.2426 28.2248ZM24.5926 14.2287C29.1404 10.4144 34.3512 7.55048 40.2341 5.63853L39.6159 3.73646C33.4988 5.72451 28.0596 8.71061 23.3074 12.6963L24.5926 14.2287ZM40.2341 5.63853C46.1243 3.7242 52.5065 2.76249 59.3875 2.76249V0.762489C52.3185 0.762489 45.7257 1.75078 39.6159 3.73646L40.2341 5.63853Z" fill="#77C6C7" fill-opacity="0.45"/>
</svg>
