<svg width="457" height="166" viewBox="0 0 457 166" fill="none" xmlns="http://www.w3.org/2000/svg">
<path d="M97.8875 18.325L97.1804 17.6179L97.1735 17.6248L97.1667 17.6319L97.8875 18.325ZM38.6 21.25V20.25H37.7586L37.6147 21.079L38.6 21.25ZM31.5125 62.0875L30.5272 61.9165L30.2725 63.3845L31.7275 63.0641L31.5125 62.0875ZM76.5125 63.2125L76.1448 64.1425L76.1543 64.1461L76.5125 63.2125ZM92.7125 73.5625L91.9994 74.2636L92.0054 74.2696L92.7125 73.5625ZM102.5 89.0875L101.56 89.4283L101.562 89.4354L101.565 89.4425L102.5 89.0875ZM101.375 131.613L100.456 131.217L101.375 131.613ZM89 149.5L89.6857 150.228L89.686 150.228L89 149.5ZM70.55 160.863L70.8957 161.801L70.9044 161.798L70.55 160.863ZM33.65 163.337L33.8652 162.361L33.8526 162.358L33.65 163.337ZM21.3875 159.625L20.9914 160.543L20.9991 160.547L21.0068 160.55L21.3875 159.625ZM10.8125 154L10.2668 154.838L10.8125 154ZM2.15 147.475L1.33358 146.898L0.815012 147.631L1.48838 148.225L2.15 147.475ZM8.675 138.25L9.49142 138.827L9.49281 138.825L8.675 138.25ZM19.475 137.012L18.9359 137.855L18.9481 137.863L18.9605 137.87L19.475 137.012ZM26.225 140.837L25.7479 141.716L25.7582 141.722L26.225 140.837ZM35.675 144.775L35.3588 145.724L35.3705 145.728L35.3823 145.731L35.675 144.775ZM63.4625 143.875L63.8257 144.807L63.8325 144.804L63.8393 144.801L63.4625 143.875ZM74.7125 136.337L73.9891 135.647L73.9888 135.647L74.7125 136.337ZM81.9125 124.525L82.8532 124.864L81.9125 124.525ZM82.1375 96.0625L81.1962 96.4L81.2 96.4108L81.2042 96.4215L82.1375 96.0625ZM75.725 85.9375L75.0178 86.6447L75.0274 86.654L75.725 85.9375ZM64.925 79.4125L64.599 80.3579H64.599L64.925 79.4125ZM24.0875 81.4375L23.8053 82.3969L24.0958 82.4823L24.3849 82.3923L24.0875 81.4375ZM10.7 77.5L9.71445 77.3306L9.56365 78.2081L10.4178 78.4594L10.7 77.5ZM23.75 1.56249V0.562492H22.9072L22.7645 1.39312L23.75 1.56249ZM100.813 1.56249H101.813V0.562492H100.813V1.56249ZM99.8125 10.7875C99.8125 13.6307 98.9205 15.8778 97.1804 17.6179L98.5946 19.0321C100.755 16.8722 101.813 14.0943 101.813 10.7875H99.8125ZM97.1667 17.6319C95.573 19.2893 92.7248 20.25 88.325 20.25V22.25C92.9252 22.25 96.452 21.2607 98.6083 19.0181L97.1667 17.6319ZM88.325 20.25H38.6V22.25H88.325V20.25ZM37.6147 21.079L30.5272 61.9165L32.4978 62.2585L39.5853 21.421L37.6147 21.079ZM31.7275 63.0641C39.8455 61.2767 47.3475 60.3875 54.2375 60.3875V58.3875C47.1775 58.3875 39.5295 59.2983 31.2975 61.1109L31.7275 63.0641ZM54.2375 60.3875C62.5375 60.3875 69.8338 61.6474 76.1448 64.1425L76.8802 62.2825C70.2913 59.6776 62.7375 58.3875 54.2375 58.3875V60.3875ZM76.1543 64.1461C82.4859 66.5757 87.7605 69.9516 91.9994 74.2635L93.4256 72.8615C88.9645 68.3234 83.4391 64.7993 76.8708 62.2789L76.1543 64.1461ZM92.0054 74.2696C96.2479 78.5121 99.4329 83.5607 101.56 89.4283L103.44 88.7467C101.217 82.6143 97.8771 77.3129 93.4196 72.8554L92.0054 74.2696ZM101.565 89.4425C103.768 95.2444 104.875 101.536 104.875 108.325H106.875C106.875 101.314 105.732 94.7806 103.435 88.7325L101.565 89.4425ZM104.875 108.325C104.875 116.756 103.396 124.382 100.456 131.217L102.294 132.008C105.354 124.893 106.875 116.994 106.875 108.325H104.875ZM100.456 131.217C97.5075 138.074 93.4594 143.921 88.314 148.772L89.686 150.228C95.0406 145.179 99.2425 139.101 102.294 132.008L100.456 131.217ZM88.3143 148.772C83.2418 153.551 77.2066 157.271 70.1956 159.927L70.9044 161.798C78.1434 159.054 84.4082 155.199 89.6857 150.228L88.3143 148.772ZM70.2043 159.924C63.1992 162.505 55.6298 163.8 47.4875 163.8V165.8C55.8453 165.8 63.6508 164.47 70.8957 161.801L70.2043 159.924ZM47.4875 163.8C42.7556 163.8 38.2155 163.319 33.8652 162.361L33.4348 164.314C37.9345 165.306 42.6194 165.8 47.4875 165.8V163.8ZM33.8526 162.358C29.5591 161.47 25.5316 160.25 21.7683 158.7L21.0068 160.55C24.8934 162.15 29.0409 163.405 33.4474 164.317L33.8526 162.358ZM21.7836 158.707C18.0064 157.077 14.532 155.229 11.3582 153.162L10.2668 154.838C13.543 156.971 17.1186 158.873 20.9914 160.543L21.7836 158.707ZM11.3582 153.162C8.16871 151.085 5.32079 148.939 2.81162 146.725L1.48838 148.225C4.07922 150.511 7.00629 152.715 10.2668 154.838L11.3582 153.162ZM2.96642 148.052L9.49142 138.827L7.85859 137.673L1.33358 146.898L2.96642 148.052ZM9.49281 138.825C10.7449 137.046 12.3246 136.212 14.3 136.212V134.212C11.6254 134.212 9.45513 135.404 7.85719 137.674L9.49281 138.825ZM14.3 136.212C15.6203 136.212 17.1583 136.717 18.9359 137.855L20.0141 136.17C18.0417 134.908 16.1297 134.212 14.3 134.212V136.212ZM18.9605 137.87C20.8513 139.004 23.1145 140.287 25.7479 141.716L26.7021 139.959C24.0855 138.538 21.8487 137.271 19.9895 136.155L18.9605 137.87ZM25.7582 141.722C28.5165 143.178 31.7188 144.51 35.3588 145.724L35.9912 143.826C32.4312 142.64 29.3335 141.347 26.6918 139.953L25.7582 141.722ZM35.3823 145.731C39.1749 146.892 43.5903 147.462 48.6125 147.462V145.462C43.7347 145.462 39.5251 144.908 35.9677 143.819L35.3823 145.731ZM48.6125 147.462C54.193 147.462 59.2687 146.583 63.8257 144.807L63.0993 142.943C58.8063 144.617 53.982 145.462 48.6125 145.462V147.462ZM63.8393 144.801C68.3858 142.952 72.2567 140.362 75.4362 137.028L73.9888 135.647C71.0183 138.763 67.3892 141.198 63.0857 142.949L63.8393 144.801ZM75.4359 137.028C78.6882 133.621 81.1591 129.561 82.8532 124.864L80.9718 124.186C79.3659 128.639 77.0368 132.454 73.9891 135.647L75.4359 137.028ZM82.8532 124.864C84.5476 120.166 85.3875 114.987 85.3875 109.337H83.3875C83.3875 114.788 82.5775 119.734 80.9718 124.186L82.8532 124.864ZM85.3875 109.337C85.3875 104.287 84.6222 99.7371 83.0709 95.7035L81.2042 96.4215C82.6528 100.188 83.3875 104.488 83.3875 109.337H85.3875ZM83.0788 95.725C81.6057 91.6158 79.3883 88.1087 76.4226 85.221L75.0274 86.654C77.7617 89.3163 79.8193 92.5592 81.1962 96.4L83.0788 95.725ZM76.4321 85.2304C73.4605 82.2588 69.7241 80.0096 65.251 78.4671L64.599 80.3579C68.8259 81.8154 72.2895 83.9162 75.0179 86.6446L76.4321 85.2304ZM65.251 78.4671C60.7745 76.9235 55.6355 76.1625 49.85 76.1625V78.1625C55.4645 78.1625 60.3755 78.9015 64.599 80.3579L65.251 78.4671ZM49.85 76.1625C41.7068 76.1625 33.0183 77.6084 23.7901 80.4827L24.3849 82.3923C33.4567 79.5666 41.9432 78.1625 49.85 78.1625V76.1625ZM24.3697 80.4781L10.9822 76.5406L10.4178 78.4594L23.8053 82.3969L24.3697 80.4781ZM11.6856 77.6694L24.7356 1.73186L22.7645 1.39312L9.71445 77.3306L11.6856 77.6694ZM23.75 2.56249H100.813V0.562492H23.75V2.56249ZM99.8125 1.56249V10.7875H101.813V1.56249H99.8125ZM134.355 86.3875V85.3875H133.355V86.3875H134.355ZM190.38 86.3875H191.38V85.3875H190.38V86.3875ZM190.38 104.5V105.5H191.38V104.5H190.38ZM134.355 104.5H133.355V105.5H134.355V104.5ZM134.355 87.3875H190.38V85.3875H134.355V87.3875ZM189.38 86.3875V104.5H191.38V86.3875H189.38ZM190.38 103.5H134.355V105.5H190.38V103.5ZM135.355 104.5V86.3875H133.355V104.5H135.355ZM232.021 146.688V145.688H231.021V146.688H232.021ZM266.333 146.688V147.688H267.333V146.688H266.333ZM266.671 29.2375L267.669 29.3012L267.82 26.9411L266.021 28.4772L266.671 29.2375ZM238.883 52.975L239.501 53.7613L239.517 53.7486L239.533 53.7353L238.883 52.975ZM235.733 54.55L235.524 53.5722L235.516 53.5738L235.509 53.5756L235.733 54.55ZM232.921 54.6625L232.678 55.6326L232.717 55.6423L232.757 55.6489L232.921 54.6625ZM230.446 53.65L230.96 52.7925L230.96 52.7925L230.446 53.65ZM228.758 52.1875L227.943 52.7669L227.945 52.7687L228.758 52.1875ZM222.121 42.85L221.468 42.0927L220.778 42.6873L221.306 43.4294L222.121 42.85ZM270.383 1.22499V0.224991H270.012L269.73 0.467731L270.383 1.22499ZM287.708 1.22499H288.708V0.224991H287.708V1.22499ZM287.708 146.688H286.708V147.688H287.708V146.688ZM319.096 146.688H320.096V145.688H319.096V146.688ZM319.096 163V164H320.096V163H319.096ZM232.021 163H231.021V164H232.021V163ZM232.021 147.688H266.333V145.688H232.021V147.688ZM267.333 146.688V39.475H265.333V146.688H267.333ZM267.333 39.475C267.333 36.1977 267.445 32.8065 267.669 29.3012L265.673 29.1738C265.447 32.7185 265.333 36.1523 265.333 39.475H267.333ZM266.021 28.4772L238.234 52.2147L239.533 53.7353L267.32 29.9978L266.021 28.4772ZM238.266 52.1887C237.307 52.942 236.393 53.3859 235.524 53.5722L235.943 55.5278C237.174 55.2641 238.36 54.658 239.501 53.7613L238.266 52.1887ZM235.509 53.5756C234.649 53.774 233.844 53.8026 233.085 53.6761L232.757 55.6489C233.798 55.8224 234.868 55.776 235.958 55.5244L235.509 53.5756ZM233.163 53.6924C232.353 53.4898 231.621 53.1888 230.96 52.7925L229.931 54.5075C230.771 55.0112 231.688 55.3852 232.678 55.6326L233.163 53.6924ZM230.96 52.7925C230.289 52.3894 229.844 51.9875 229.572 51.6063L227.945 52.7687C228.422 53.4375 229.103 54.0106 229.931 54.5075L230.96 52.7925ZM229.573 51.6081L222.936 42.2706L221.306 43.4294L227.943 52.7669L229.573 51.6081ZM222.774 43.6073L271.036 1.98225L269.73 0.467731L221.468 42.0927L222.774 43.6073ZM270.383 2.22499H287.708V0.224991H270.383V2.22499ZM286.708 1.22499V146.688H288.708V1.22499H286.708ZM287.708 147.688H319.096V145.688H287.708V147.688ZM318.096 146.688V163H320.096V146.688H318.096ZM319.096 162H232.021V164H319.096V162ZM233.021 163V146.688H231.021V163H233.021ZM388.976 61.75L388.194 61.1271L388.188 61.1337L388.976 61.75ZM385.038 66.7L384.261 66.0708L385.038 66.7ZM381.438 71.425L380.625 70.8438L381.985 72.2623L381.438 71.425ZM393.588 65.8L393.301 64.8422L393.297 64.8435L393.588 65.8ZM426.438 66.925L426.78 65.9852L426.438 66.925ZM441.626 76.2625L440.938 76.9881L440.944 76.9942L440.951 77.0002L441.626 76.2625ZM452.089 91.3375L453.009 90.9464L452.089 91.3375ZM451.863 132.738L450.941 132.351L451.863 132.738ZM440.388 149.5L439.698 148.777L439.693 148.782L440.388 149.5ZM422.838 160.75L423.206 161.68L423.215 161.676L422.838 160.75ZM377.951 160.863L377.581 161.792L377.951 160.863ZM360.963 149.725L360.24 150.415L360.245 150.421L360.251 150.427L360.963 149.725ZM350.163 132.175L349.223 132.516L349.227 132.525L350.163 132.175ZM351.063 86.725L350.133 86.3596L350.131 86.3642L351.063 86.725ZM365.913 61.075L365.112 60.4763L365.111 60.4782L365.913 61.075ZM406.526 6.7375L407.327 7.33617L407.336 7.3237L407.345 7.31096L406.526 6.7375ZM436.901 1.56249L437.683 2.1854L438.976 0.562492H436.901V1.56249ZM369.063 126.887L368.116 127.209L368.12 127.219L368.124 127.229L369.063 126.887ZM375.476 137.575L374.742 138.254L374.751 138.264L375.476 137.575ZM385.826 144.55L385.449 145.476L385.455 145.478L385.826 144.55ZM414.063 144.55L414.424 145.483L414.431 145.48L414.438 145.477L414.063 144.55ZM424.976 137.462L424.278 136.747L424.269 136.755L424.976 137.462ZM432.063 126.887L432.99 127.265L432.992 127.259L432.063 126.887ZM432.063 99.55L431.127 99.9011L431.131 99.9113L431.135 99.9214L432.063 99.55ZM425.201 88.975L424.503 89.6913L424.512 89.7L425.201 88.975ZM414.626 82.45L414.264 83.382L414.274 83.386L414.284 83.3898L414.626 82.45ZM386.838 82.7875L387.218 83.7126L387.227 83.7091L386.838 82.7875ZM376.038 89.9875L375.323 89.2892L375.322 89.2894L376.038 89.9875ZM369.288 100.45L368.359 100.082L369.288 100.45ZM388.188 61.1337C386.842 62.8547 385.533 64.5004 384.261 66.0708L385.816 67.3292C387.094 65.7496 388.41 64.0953 389.763 62.3663L388.188 61.1337ZM384.261 66.0708C382.974 67.6607 381.762 69.2517 380.625 70.8438L382.252 72.0062C383.365 70.4483 384.553 68.8893 385.816 67.3292L384.261 66.0708ZM381.985 72.2623C385.577 69.9165 389.541 68.0805 393.88 66.7565L393.297 64.8435C388.786 66.2196 384.65 68.1335 380.892 70.5877L381.985 72.2623ZM393.876 66.7578C398.274 65.4385 403.014 64.775 408.101 64.775V62.775C402.838 62.775 397.903 63.4615 393.301 64.8422L393.876 66.7578ZM408.101 64.775C414.44 64.775 420.437 65.8066 426.097 67.8648L426.78 65.9852C420.89 63.8434 414.662 62.775 408.101 62.775V64.775ZM426.097 67.8648C431.746 69.9191 436.69 72.9599 440.938 76.9881L442.314 75.5369C437.862 71.3151 432.681 68.1309 426.78 65.9852L426.097 67.8648ZM440.951 77.0002C445.261 80.9454 448.669 85.8488 451.168 91.7286L453.009 90.9464C450.408 84.8262 446.841 79.6796 442.301 75.5248L440.951 77.0002ZM451.168 91.7286C453.657 97.5843 454.913 104.31 454.913 111.925H456.913C456.913 104.09 455.62 97.0907 453.009 90.9464L451.168 91.7286ZM454.913 111.925C454.913 119.226 453.587 126.031 450.941 132.351L452.786 133.124C455.54 126.544 456.913 119.474 456.913 111.925H454.913ZM450.941 132.351C448.293 138.677 444.546 144.149 439.698 148.777L441.079 150.223C446.131 145.401 450.034 139.698 452.786 133.124L450.941 132.351ZM439.693 148.782C434.917 153.41 429.178 157.093 422.462 159.824L423.215 161.676C430.149 158.857 436.11 155.04 441.084 150.218L439.693 148.782ZM422.471 159.82C415.776 162.468 408.366 163.8 400.226 163.8V165.8C408.586 165.8 416.251 164.432 423.206 161.68L422.471 159.82ZM400.226 163.8C392.082 163.8 384.786 162.505 378.321 159.933L377.581 161.792C384.316 164.47 391.87 165.8 400.226 165.8V163.8ZM378.321 159.933C371.842 157.357 366.299 153.719 361.676 149.023L360.251 150.427C365.078 155.331 370.86 159.118 377.581 161.792L378.321 159.933ZM361.687 149.035C357.138 144.265 353.607 138.534 351.1 131.825L349.227 132.525C351.82 139.466 355.489 145.435 360.24 150.415L361.687 149.035ZM351.104 131.834C348.674 125.134 347.451 117.639 347.451 109.337H345.451C345.451 117.836 346.703 125.566 349.223 132.516L351.104 131.834ZM347.451 109.337C347.451 102.357 348.957 94.9427 351.996 87.0857L350.131 86.3642C347.02 94.4073 345.451 102.068 345.451 109.337H347.451ZM351.994 87.0904C355.104 79.1689 360.003 70.6965 366.716 61.6718L365.111 60.4782C358.324 69.6035 353.323 78.2311 350.133 86.3596L351.994 87.0904ZM366.714 61.6737L407.327 7.33617L405.725 6.13882L365.112 60.4763L366.714 61.6737ZM407.345 7.31096C408.277 5.97995 409.667 4.84342 411.572 3.92599L410.705 2.12399C408.56 3.15657 406.875 4.49504 405.707 6.16403L407.345 7.31096ZM411.572 3.92599C413.449 3.02252 415.548 2.56249 417.888 2.56249V0.562492C415.279 0.562492 412.878 1.07747 410.705 2.12399L411.572 3.92599ZM417.888 2.56249H436.901V0.562492H417.888V2.56249ZM436.119 0.939583L388.194 61.1271L389.758 62.3729L437.683 2.1854L436.119 0.939583ZM365.926 113.05C365.926 118.17 366.652 122.893 368.116 127.209L370.01 126.566C368.625 122.482 367.926 117.98 367.926 113.05H365.926ZM368.124 127.229C369.666 131.47 371.87 135.149 374.742 138.254L376.21 136.896C373.532 134.001 371.461 130.555 370.003 126.546L368.124 127.229ZM374.751 138.264C377.704 141.372 381.275 143.776 385.449 145.476L386.203 143.624C382.277 142.024 378.948 139.778 376.201 136.886L374.751 138.264ZM385.455 145.478C389.715 147.183 394.494 148.025 399.776 148.025V146.025C394.708 146.025 390.186 145.217 386.197 143.622L385.455 145.478ZM399.776 148.025C405.131 148.025 410.018 147.183 414.424 145.483L413.703 143.617C409.559 145.217 404.921 146.025 399.776 146.025V148.025ZM414.438 145.477C418.826 143.706 422.58 141.273 425.683 138.17L424.269 136.755C421.372 139.652 417.851 141.944 413.689 143.623L414.438 145.477ZM425.674 138.178C428.849 135.081 431.289 131.44 432.99 127.265L431.137 126.51C429.538 130.435 427.252 133.844 424.278 136.747L425.674 138.178ZM432.992 127.259C434.693 123.007 435.538 118.417 435.538 113.5H433.538C433.538 118.183 432.734 122.518 431.135 126.516L432.992 127.259ZM435.538 113.5C435.538 108.218 434.696 103.44 432.992 99.1786L431.135 99.9214C432.731 103.91 433.538 108.432 433.538 113.5H435.538ZM433 99.1989C431.376 94.8692 429.009 91.2128 425.89 88.25L424.512 89.7C427.393 92.4371 429.601 95.8308 431.127 99.9011L433 99.1989ZM425.899 88.2588C422.865 85.3026 419.216 83.055 414.968 81.5102L414.284 83.3898C418.286 84.845 421.687 86.9474 424.503 89.6912L425.899 88.2588ZM414.988 81.518C410.808 79.8922 406.183 79.0875 401.126 79.0875V81.0875C405.969 81.0875 410.344 81.8577 414.264 83.382L414.988 81.518ZM401.126 79.0875C395.76 79.0875 390.863 80.0078 386.45 81.8659L387.227 83.7091C391.364 81.9672 395.992 81.0875 401.126 81.0875V79.0875ZM386.459 81.8625C382.14 83.6363 378.423 86.111 375.323 89.2892L376.754 90.6858C379.654 87.714 383.137 85.3887 387.218 83.7125L386.459 81.8625ZM375.322 89.2894C372.303 92.3861 369.982 95.9863 368.359 100.082L370.218 100.818C371.745 96.9637 373.924 93.5889 376.754 90.6856L375.322 89.2894ZM368.359 100.082C366.736 104.178 365.926 108.503 365.926 113.05H367.926C367.926 108.747 368.691 104.672 370.218 100.818L368.359 100.082Z" fill="#77C6C7" fill-opacity="0.45"/>
</svg>
