<svg width="35" height="35" viewBox="0 0 35 35" fill="none" xmlns="http://www.w3.org/2000/svg">
<path d="M10.2852 0.255087V0.255159L10.2921 0.254841C12.1548 0.169093 12.747 0.15 17.5 0.15C22.2529 0.15 22.8452 0.170681 24.7064 0.254847C26.5566 0.338515 27.8131 0.633199 28.9099 1.05784L28.9111 1.05827C30.0569 1.49129 31.0964 2.16815 31.9562 3.04352L31.9561 3.04353L31.9582 3.04552C32.8334 3.90357 33.5086 4.94138 33.94 6.08871L33.9406 6.09024C34.3668 7.18691 34.6599 8.44338 34.7452 10.2906C34.8309 12.1564 34.85 12.7486 34.85 17.5C34.85 22.2529 34.8293 22.8452 34.7452 24.708C34.6615 26.555 34.3668 27.8114 33.9406 28.9082L33.9401 28.9097C33.5086 30.0572 32.8322 31.0968 31.958 31.9562L31.9562 31.9581C31.0965 32.8334 30.0571 33.5086 28.9112 33.9401L28.9098 33.9406C27.8131 34.3668 26.5566 34.6599 24.7094 34.7452C22.8452 34.8309 22.253 34.85 17.5 34.85C12.7471 34.85 12.1548 34.8293 10.292 34.7452C8.44503 34.6615 7.18859 34.3668 6.09183 33.9406L6.0903 33.9401C4.94284 33.5086 3.90322 32.8322 3.04378 31.958L3.0419 31.9561C2.16716 31.0975 1.49024 30.0584 1.05834 28.9112L1.05784 28.9099C0.633225 27.8132 0.340094 26.5566 0.25484 24.7094C0.169093 22.8436 0.15 22.2514 0.15 17.5C0.15 12.7471 0.170681 12.1548 0.254847 10.2936C0.338515 8.44343 0.633199 7.18692 1.05784 6.09006L1.05784 6.09007L1.05831 6.08883C1.49086 4.94163 2.1683 3.90253 3.04346 3.04389L3.04348 3.04391L3.04547 3.04188C3.90367 2.16733 4.94224 1.49042 6.08881 1.05832L6.08881 1.05832L6.09006 1.05784C7.18579 0.633634 8.44097 0.340658 10.2852 0.255087ZM7.12378 3.71817L7.1237 3.7182C6.28911 4.04357 5.68769 4.43171 5.06035 5.05889C4.46437 5.6389 4.00563 6.34484 3.71768 7.12502C3.47173 7.75729 3.18381 8.69914 3.10516 10.4216C3.02068 12.2705 3.00318 12.8269 3.00318 17.5C3.00318 22.1731 3.02068 22.7295 3.10516 24.5784C3.18381 26.3009 3.47173 27.2427 3.71769 27.875C4.0052 28.6536 4.46387 29.3605 5.05959 29.9404C5.63943 30.5361 6.34632 30.9948 7.12498 31.2823C7.75725 31.5283 8.69911 31.8162 10.4216 31.8948C12.2705 31.9793 12.8253 31.9968 17.5 31.9968C22.1747 31.9968 22.7295 31.9793 24.5784 31.8948C26.302 31.8161 27.244 31.5279 27.8762 31.2818L27.8763 31.2818C28.7109 30.9564 29.3123 30.5683 29.9396 29.9412C30.5357 29.3612 30.9947 28.654 31.2823 27.875C31.5283 27.2428 31.8162 26.3009 31.8948 24.5784C31.9793 22.7295 31.9968 22.1731 31.9968 17.5C31.9968 12.8269 31.9793 12.2705 31.8948 10.4216C31.8161 8.69801 31.5279 7.75605 31.2818 7.12378L31.2818 7.1237C30.9564 6.28912 30.5683 5.68769 29.9411 5.06035C29.3611 4.46441 28.6551 4.00567 27.875 3.71768C27.2427 3.47172 26.3008 3.18381 24.5784 3.10516C22.7295 3.02068 22.1731 3.00318 17.5 3.00318C12.8269 3.00318 12.2705 3.02068 10.4216 3.10516C8.69801 3.18386 7.75605 3.4721 7.12378 3.71817ZM15.2071 23.0333C16.4875 23.5662 17.9133 23.6382 19.2408 23.2368C20.5683 22.8354 21.7154 21.9855 22.4859 20.8324C23.2565 19.6792 23.6028 18.2943 23.4657 16.9142C23.3286 15.5342 22.7167 14.2445 21.7344 13.2655C21.1082 12.6397 20.351 12.1605 19.5174 11.8624C18.6838 11.5643 17.7944 11.4548 16.9133 11.5417C16.0323 11.6286 15.1815 11.9098 14.4221 12.365C13.6628 12.8202 13.0138 13.438 12.5219 14.1742C12.03 14.9103 11.7075 15.7463 11.5774 16.622C11.4474 17.4977 11.5132 18.3914 11.77 19.2387C12.0269 20.0859 12.4683 20.8657 13.0627 21.5219C13.657 22.178 14.3894 22.6941 15.2071 23.0333ZM11.2456 11.2456C12.0669 10.4243 13.042 9.77275 14.1151 9.32825C15.1883 8.88374 16.3385 8.65496 17.5 8.65496C18.6615 8.65496 19.8117 8.88374 20.8849 9.32825C21.958 9.77275 22.9331 10.4243 23.7544 11.2456C24.5757 12.0669 25.2272 13.042 25.6718 14.1151C26.1163 15.1883 26.345 16.3385 26.345 17.5C26.345 18.6615 26.1163 19.8117 25.6718 20.8849C25.2272 21.958 24.5757 22.9331 23.7544 23.7544C22.0956 25.4132 19.8458 26.345 17.5 26.345C15.1542 26.345 12.9044 25.4132 11.2456 23.7544C9.58684 22.0956 8.65496 19.8459 8.65496 17.5C8.65496 15.1542 9.58684 12.9044 11.2456 11.2456ZM28.84 9.09363C28.7335 9.33571 28.5795 9.55395 28.3871 9.73543C28.0129 10.0884 27.5159 10.2816 27.0016 10.2741C26.4873 10.2666 25.9962 10.059 25.6325 9.69528C25.2687 9.33156 25.0611 8.84042 25.0536 8.32611C25.0461 7.8118 25.2393 7.31482 25.5923 6.94066C25.7738 6.74827 25.992 6.59425 26.2341 6.48772C26.4762 6.38119 26.7372 6.32431 27.0016 6.32046C27.2661 6.3166 27.5286 6.36585 27.7737 6.46527C28.0188 6.5647 28.2414 6.71229 28.4284 6.89931C28.6154 7.08633 28.763 7.30896 28.8625 7.55404C28.9619 7.79912 29.0111 8.06166 29.0073 8.32611C29.0034 8.59056 28.9465 8.85155 28.84 9.09363Z" fill="#E95F4E" stroke="white" stroke-width="0.3"/>
</svg>
