<svg width="52" height="34" viewBox="0 0 52 34" fill="none" xmlns="http://www.w3.org/2000/svg">
<path d="M0 4.67752C0 2.96746 0.993412 2.04536 2.98024 1.91124L10.6364 1.96154C11.1502 1.96154 11.4928 2.21302 11.664 2.71598C12.4519 5.23077 13.334 7.40187 14.3103 9.22929C15.2866 11.0567 16.5626 13.1608 18.1383 15.5414C18.2754 15.8432 18.498 15.9941 18.8063 15.9941C19.0461 15.9941 19.2345 15.8767 19.3715 15.642L19.5257 15.0888L19.5771 6.38757C19.5771 5.78402 19.4315 5.38166 19.1403 5.18047C18.8491 4.97929 18.3096 4.8284 17.5217 4.72781C16.9051 4.62722 16.5968 4.25838 16.5968 3.6213C16.5968 3.48718 16.614 3.38659 16.6482 3.31953C17.3676 1.14004 19.4229 0.0502959 22.8142 0.0502959L25.6917 0C26.9934 0 28.0725 0.31854 28.9289 0.955621C29.7852 1.5927 30.2134 2.59862 30.2134 3.97337V15.3905C30.4532 15.5582 30.6759 15.642 30.8814 15.642C31.3953 15.642 31.8406 15.3402 32.2174 14.7367C35.9855 9.57298 38.0237 6.11933 38.332 4.37574C38.332 4.34221 38.3663 4.25838 38.4348 4.12426C38.6746 3.6213 39.0685 3.1854 39.6166 2.81657C40.1647 2.44773 40.6443 2.19625 41.0553 2.06213C41.1924 1.99507 41.3465 1.96154 41.5178 1.96154H49.4822L49.996 2.01183C50.6812 2.01183 51.2121 2.33037 51.5889 2.96746C51.726 3.16864 51.8202 3.38659 51.8715 3.6213C51.9229 3.85602 51.9572 4.09073 51.9743 4.32544C51.9914 4.56016 52 4.69428 52 4.72781V5.07988C51.7602 6.45464 51.1522 7.9216 50.1759 9.48077C49.1996 11.0399 47.9578 12.7249 46.4506 14.5355C44.9433 16.3462 44.0013 17.5365 43.6245 18.1065C43.3162 18.5089 43.1621 18.8777 43.1621 19.213C43.1621 19.4813 43.2991 19.783 43.5731 20.1183L51.0751 29.3728C51.4862 29.9093 51.6917 30.4961 51.6917 31.1331C51.6917 31.9043 51.3834 32.5414 50.7668 33.0444C50.1502 33.5473 49.4137 33.8323 48.5573 33.8994L47.6838 33.9497H39.8735C39.8393 33.9497 39.7708 33.9581 39.668 33.9749C39.5652 33.9916 39.4967 34 39.4624 34C38.7088 34 38.0066 33.6815 37.3557 33.0444C37.1159 32.7761 35.5059 30.7978 32.5257 27.1095C32.3544 26.8748 32.1146 26.6568 31.8063 26.4556C31.6693 26.9921 31.4895 27.7633 31.2668 28.7692C31.0441 29.7751 30.8814 30.4961 30.7787 30.932L30.6245 31.787C30.2819 32.9606 29.5626 33.6647 28.4664 33.8994L27.747 33.9497H22.7115C19.8682 33.9497 17.0336 32.6755 14.2075 30.1272C11.3814 27.5789 8.83794 24.2845 6.57708 20.2441C4.31621 16.2036 2.20949 11.501 0.256917 6.1361C0.085639 5.7002 0 5.214 0 4.67752ZM30.8814 17.7041C30.1621 17.7041 29.5112 17.5113 28.9289 17.1257C28.3465 16.7401 28.0553 16.212 28.0553 15.5414V3.97337C28.0553 3.30276 27.8841 2.82495 27.5415 2.53994C27.1989 2.25493 26.5995 2.11243 25.7431 2.11243L22.8142 2.21302C21.3412 2.21302 20.2279 2.4645 19.4743 2.96746C20.9816 3.6716 21.7352 4.81164 21.7352 6.38757V15.2396C21.6667 16.0779 21.3241 16.7737 20.7075 17.3269C20.0909 17.8802 19.4058 18.1568 18.6522 18.1568C17.6245 18.1568 16.8366 17.6706 16.2885 16.6982C13.6166 12.7416 11.6298 8.98619 10.3281 5.43195L9.86561 4.12426L3.03162 4.07396C2.5863 4.07396 2.33794 4.09911 2.28656 4.14941C2.23518 4.1997 2.20949 4.34221 2.20949 4.57692C2.20949 4.8787 2.24374 5.19724 2.31225 5.53254L3.3913 8.34911C6.26877 15.6252 9.3946 21.359 12.7688 25.5503C16.143 29.7416 19.4572 31.8373 22.7115 31.8373H27.8498C28.0553 31.8373 28.2095 31.7786 28.3123 31.6612C28.415 31.5439 28.5007 31.3176 28.5692 30.9823L28.6719 30.4793L29.6482 26.0533C29.9223 25.4497 30.1621 25.0473 30.3676 24.8462C30.7444 24.4773 31.1897 24.2929 31.7036 24.2929C32.5257 24.2929 33.365 24.7791 34.2213 25.7515L38.5889 31.1834C38.863 31.6193 39.1541 31.8373 39.4624 31.8373H47.9407C48.9684 31.8373 49.4822 31.5858 49.4822 31.0828C49.4822 30.9152 49.4308 30.7475 49.3281 30.5799L41.8775 21.4763C41.2951 20.7722 41.004 20.0178 41.004 19.213C41.004 18.4083 41.278 17.6371 41.8261 16.8994C42.2714 16.2288 43.1364 15.1139 44.4209 13.5547C45.7055 11.9956 46.8274 10.537 47.7866 9.17899C48.7457 7.82101 49.3794 6.58876 49.6877 5.48225L49.8419 4.8284C49.8076 4.76134 49.7905 4.65237 49.7905 4.50148C49.7905 4.35059 49.7734 4.22485 49.7391 4.12426H41.6719C41.1581 4.32544 40.747 4.62722 40.4387 5.02959L40.1304 5.98521C39.274 8.29882 37.0303 11.8698 33.3992 16.6982C32.6798 17.3688 31.8406 17.7041 30.8814 17.7041Z" fill="#E95F4E"/>
</svg>
